{
	"asset":{
		"generator":"Khronos glTF Blender I/O v3.6.28",
		"version":"2.0"
	},
	"extensionsUsed":[
		"KHR_materials_specular",
		"KHR_materials_ior"
	],
	"scene":0,
	"scenes":[
		{
			"name":"Scene",
			"nodes":[
				0
			]
		}
	],
	"nodes":[
		{
			"mesh":0,
			"name":"Fichier 1",
			"rotation":[
				0.7071068286895752,
				0,
				0,
				0.7071068286895752
			]
		}
	],
	"materials":[
		{
			"doubleSided":true,
			"extensions":{
				"KHR_materials_specular":{
					"specularColorFactor":[
						0,
						0,
						0
					]
				},
				"KHR_materials_ior":{
					"ior":1.4500000476837158
				}
			},
			"name":"material0",
			"pbrMetallicRoughness":{
				"baseColorFactor":[
					0.800000011920929,
					0.800000011920929,
					0.800000011920929,
					1
				],
				"roughnessFactor":0.15748031437397003
			}
		}
	],
	"meshes":[
		{
			"name":"Fichier 1",
			"primitives":[
				{
					"attributes":{
						"POSITION":0,
						"NORMAL":1,
						"TEXCOORD_0":2
					},
					"indices":3,
					"material":0
				}
			]
		}
	],
	"accessors":[
		{
			"bufferView":0,
			"componentType":5126,
			"count":31517,
			"max":[
				9.994159698486328,
				1.795989990234375,
				5.497819900512695
			],
			"min":[
				-9.994159698486328,
				-1.795989990234375,
				-5.497819900512695
			],
			"type":"VEC3"
		},
		{
			"bufferView":1,
			"componentType":5126,
			"count":31517,
			"type":"VEC3"
		},
		{
			"bufferView":2,
			"componentType":5126,
			"count":31517,
			"type":"VEC2"
		},
		{
			"bufferView":3,
			"componentType":5123,
			"count":79110,
			"type":"SCALAR"
		}
	],
	"bufferViews":[
		{
			"buffer":0,
			"byteLength":378204,
			"byteOffset":0,
			"target":34962
		},
		{
			"buffer":0,
			"byteLength":378204,
			"byteOffset":378204,
			"target":34962
		},
		{
			"buffer":0,
			"byteLength":252136,
			"byteOffset":756408,
			"target":34962
		},
		{
			"buffer":0,
			"byteLength":158220,
			"byteOffset":1008544,
			"target":34963
		}
	],
	"buffers":[
		{
			"byteLength":1166764,
			"uri":"BB2.bin"
		}
	]
}
