{
  "accessors": [
    {
      "bufferView": 0,
      "componentType": 5125,
      "count": 79110,
      "type": "SCALAR"
    },
    {
      "bufferView": 1,
      "componentType": 5126,
      "count": 17783,
      "max": [
        0.11324828250632846,
        0.062298240638264106,
        0.02035117595223051
      ],
      "min": [
        -0.11324828250632846,
        -0.062298240638264085,
        -0.02035117595223051
      ],
      "type": "VEC3"
    },
    {
      "bufferView": 2,
      "componentType": 5126,
      "count": 17783,
      "max": [
        0.9999999291385673,
        0.9999999997973928,
        0.9999655517101114
      ],
      "min": [
        -1.0,
        -0.9999996626883462,
        -0.9999655517101114
      ],
      "type": "VEC3"
    },
    {
      "bufferView": 3,
      "componentType": 5126,
      "count": 17783,
      "max": [
        0.8083212632932677,
        1.0
      ],
      "min": [
        0.0,
        0.0
      ],
      "type": "VEC2"
    }
  ],
  "asset": {
    "generator": "Adobe Illustrator",
    "version": "2.0"
  },
  "bufferViews": [
    {
      "buffer": 0,
      "byteLength": 316440,
      "target": 34963
    },
    {
      "buffer": 0,
      "byteLength": 213396,
      "byteOffset": 316440,
      "target": 34962
    },
    {
      "buffer": 0,
      "byteLength": 213396,
      "byteOffset": 529836,
      "target": 34962
    },
    {
      "buffer": 0,
      "byteLength": 142264,
      "byteOffset": 743232,
      "target": 34962
    }
  ],
  "buffers": [
    {
      "byteLength": 885496,
      "uri": "data:application/octet-stream;base64,"
    }
  ],
  "materials": [
    {
      "doubleSided": true,
      "pbrMetallicRoughness": {
        "baseColorFactor": [
          0.1132812574505806,
          0.1132812574505806,
          0.1054687574505806,
          1.0
        ],
        "metallicFactor": 0.0,
        "roughnessFactor": 0.4000000059604645
      }
    }
  ],
  "meshes": [
    {
      "primitives": [
        {
          "attributes": {
            "NORMAL": 2,
            "POSITION": 1,
            "TEXCOORD_0": 3
          },
          "indices": 0,
          "material": 0,
          "mode": 4
        }
      ]
    }
  ],
  "nodes": [
    {
      "mesh": 0
    }
  ],
  "scenes": [
    {
      "nodes": [
        0
      ]
    }
  ]
}
